inDegrees=no
num_controls=7
num_derivatives=13
num_iterations=133
num_multipliers=7
num_parameters=0
num_slacks=7
num_states=26
objective=5.603402
objective_accelerations=0.729371
objective_balance=0.036010
objective_effort=0.369966
objective_height=4.422547
objective_ligament=0.045509
solver_duration=1480.589567
status=Solve_Succeeded
success=true
DataType=double
version=3
OpenSimVersion=4.4-2022-07-23-0e9fedc
endheader
time	/jointset/ground_pelvis/pelvis_tilt/value	/jointset/ground_pelvis/pelvis_tx/value	/jointset/ground_pelvis/pelvis_ty/value	/jointset/hip_l/hip_flexion_l/value	/jointset/hip_l/hip_adduction_l/value	/jointset/hip_l/hip_rotation_l/value	/jointset/back/lumbar_extension/value	/jointset/patellofemoral_l/patellar_flexion_l/value	/jointset/knee_l/knee_flexion_l/value	/jointset/knee_l/knee_adduction_l/value	/jointset/knee_l/knee_rotation_l/value	/jointset/ankle_l/ankle_angle_l/value	/jointset/subtalar_l/subtalar_angle_l/value	/jointset/ground_pelvis/pelvis_tilt/speed	/jointset/ground_pelvis/pelvis_tx/speed	/jointset/ground_pelvis/pelvis_ty/speed	/jointset/hip_l/hip_flexion_l/speed	/jointset/hip_l/hip_adduction_l/speed	/jointset/hip_l/hip_rotation_l/speed	/jointset/back/lumbar_extension/speed	/jointset/patellofemoral_l/patellar_flexion_l/speed	/jointset/knee_l/knee_flexion_l/speed	/jointset/knee_l/knee_adduction_l/speed	/jointset/knee_l/knee_rotation_l/speed	/jointset/ankle_l/ankle_angle_l/speed	/jointset/subtalar_l/subtalar_angle_l/speed	/forceset/tau_hip_flexion_l	/forceset/tau_hip_adduction_l	/forceset/tau_hip_rotation_l	/forceset/tau_knee_flexion_l	/forceset/tau_ankle_angle_l	/forceset/tau_subtalar_angle_l	/forceset/tau_lumbar_extension	lambda_cid13_p0	lambda_cid13_p1	lambda_cid13_p2	lambda_cid13_p3	lambda_cid13_p4	lambda_cid13_p5	lambda_cid14_p0	/jointset/ground_pelvis/pelvis_tilt/accel	/jointset/ground_pelvis/pelvis_tx/accel	/jointset/ground_pelvis/pelvis_ty/accel	/jointset/hip_l/hip_flexion_l/accel	/jointset/hip_l/hip_adduction_l/accel	/jointset/hip_l/hip_rotation_l/accel	/jointset/back/lumbar_extension/accel	/jointset/patellofemoral_l/patellar_flexion_l/accel	/jointset/knee_l/knee_flexion_l/accel	/jointset/knee_l/knee_adduction_l/accel	/jointset/knee_l/knee_rotation_l/accel	/jointset/ankle_l/ankle_angle_l/accel	/jointset/subtalar_l/subtalar_angle_l/accel	gamma_cid13_p0	gamma_cid13_p1	gamma_cid13_p2	gamma_cid13_p3	gamma_cid13_p4	gamma_cid13_p5	gamma_cid14_p0
0.5	-0.4765574629150128	-0.1150188348687489	0.7448555664222148	1.265622227995168	-0.4332135626465823	-0.2561821740833425	-0.2573930514862675	0.6754315606219581	0.6754315606219571	-0.1699113958301761	-0.1563624655942952	-0.07524000245766893	-0.1199476198229563	-1.137288562767907	-0.3936303615587568	-0.56932634285878	2.875910403048208	-0.2253203727249297	0.6271738380647109	-0.08926492030500879	1.629589206049169	1.62958920604917	0.02165540728048743	-0.1019689665656985	-0.01208097760120208	-0.2432983817557967	-0.227358779503472	-7.579472697891995e-05	-0.003256797900943905	-0.1835077651917753	0.1456193329954991	0.06049715842523262	0.2045841199146445	12.718619043561	-30.66234177761563	7.021437676051928	-12.70366457398772	-522.5993726618623	-65.38805835919996	-31.26815785439452	1.102828271212246	0.8449361173765504	-0.3642591502999633	-1.875565556007831	0.5944403277006322	-0.03162813644675404	1.11635755202323	-1.06766711072646	-1.06766711072646	0.08415044395175759	0.2550474287119867	-0.06965742399947944	0.6028334435220207	2.070390317594549e-08	-7.955374583636212e-07	-7.856732765932497e-08	-2.935244881884466e-07	-2.285268037164723e-07	3.818974937891432e-07	-1.495856217958276e-07
0.51	-0.4878727935507018	-0.1189124424547984	0.7391453144714615	1.294282506170518	-0.4354377016247551	-0.249914107012241	-0.2582313307439896	0.6916720043167267	0.6916720043167262	-0.1696918433554412	-0.1573709945166193	-0.07536467590357827	-0.1223513156189171	-1.12564298699995	-0.3850566712244207	-0.5726055689179822	2.855787813037409	-0.2194869243199432	0.6263600114166915	-0.07842776821643371	1.618276783376701	1.618276783376701	0.02224701014187658	-0.09972416760461712	-0.01287664440367486	-0.2374322147378165	-0.2347767587296751	0.0004607802444155039	-0.003258200130860222	-0.1850362098672649	0.1479272688735856	0.06186565104398133	0.2100215423631278	13.18517396580516	-31.29112597472385	7.067720753597945	-13.04755181966302	-526.7560552188914	-65.03463842060253	-30.55710895469406	1.21561691595969	0.8687015734356224	-0.2920279431884176	-2.134212868928869	0.5810228739094568	-0.1183224078954467	1.061868490717101	-1.196412146053591	-1.19641214605363	0.04528959383593141	0.2111477359774691	-0.08796687329286899	0.5799204779849984	2.229310456334733e-09	-7.305228460382462e-07	-1.755032051199188e-08	-2.622362425120935e-07	-2.283415001047846e-07	3.928002873864054e-07	-1.512120691459599e-07
0.52	-0.4990676294914368	-0.1227192899211098	0.7334058155382245	1.322730837016698	-0.4376028609634757	-0.243656590703403	-0.2589623435901375	0.7077926473246613	0.7077926473246612	-0.1694666499747716	-0.1583566851280985	-0.07549799513049671	-0.1246960673152884	-1.113189623777102	-0.3762783376111461	-0.5751757393555077	2.833520937214096	-0.213524444834485	0.6250636856120365	-0.0678116379901603	1.605629068682372	1.605629068682372	0.02278358846740328	-0.09740130439668569	-0.01381013380301533	-0.2315095618378772	-0.2421947379558783	0.0009973552158098727	-0.003259602360775857	-0.1865646545427547	0.1502352047516722	0.06323414366272995	0.215458964811611	13.64286243459642	-31.91891088789956	7.114476341763678	-13.37135989053889	-531.03712826175	-64.70433319168411	-29.84263471633175	1.264385762190592	0.8858647731642403	-0.222448025964626	-2.304422718510466	0.6202465437949491	-0.1281279677737921	1.072153179562895	-1.334725515098405	-1.334725515098404	0.07314553677926672	0.2706602780819861	-0.09722194337301782	0.61413061991384	-2.067142426490661e-08	-6.524443319688028e-07	6.351652281268855e-08	-2.204664311755983e-07	-2.313999398816847e-07	4.00655555997612e-07	-1.523615113636059e-07
0.53	-0.5101334638729003	-0.1264374283782911	0.7276442430224287	1.350945419433237	-0.4397077239122578	-0.2374139916702977	-0.2595892100182905	0.7237801718881504	0.7237801718881501	-0.1692364287512557	-0.1593183306723232	-0.07564128526465576	-0.1269812593820295	-1.099779004877526	-0.3673221372500728	-0.5770113388994923	2.80898139797141	-0.2074271658292424	0.6233816790089428	-0.05770860236838768	1.591669924563684	1.591669924563684	0.02326228441235548	-0.0949105444664398	-0.01485781591852422	-0.225513702684466	-0.2494025946687915	0.001424571309471772	-0.003281621617956417	-0.1880876351579191	0.1525150701378212	0.06443741260876334	0.2206351136005287	14.09614191363866	-32.4787400404974	7.155621207720622	-13.62338980077722	-535.1760046617111	-64.25883165310532	-29.13377198020106	1.409137557802178	0.9045404484907694	-0.1450487842667037	-2.590844409182471	0.6077232518980735	-0.1995308625204685	0.9573355442881645	-1.457366184964974	-1.457366184965046	0.03534980794283635	0.2409479201799998	-0.1100332994645323	0.5946701071855495	-3.079441348204263e-08	-5.961661932526924e-07	9.733135064878691e-08	-1.986491105962518e-07	-2.208151466358544e-07	4.02207587723104e-07	-1.502245543469137e-07
